<svg width="20" height="21" viewBox="0 0 20 21" fill="none" xmlns="http://www.w3.org/2000/svg">
<g id="Frame" clip-path="url(#clip0_247_968)">
<g id="Group">
<path id="Vector" d="M18.3333 2.16668V1.83334C18.3333 1.09696 17.7364 0.5 17 0.5C16.2636 0.5 15.6666 1.09696 15.6666 1.83334V2.16668H13.6666V1.83334C13.6666 1.09696 13.0697 0.5 12.3333 0.5C11.597 0.5 11 1.09696 11 1.83334V2.16668H9.00001V1.83334C9.00001 1.09696 8.40305 0.5 7.66667 0.5C6.93028 0.5 6.33332 1.09696 6.33332 1.83334V2.16668H4.33334V1.83334C4.33334 1.09696 3.73638 0.5 2.99999 0.5C2.26361 0.5 1.66668 1.09696 1.66668 1.83334V2.16668C0.746652 2.16776 0.00111539 2.9133 0 3.83333V18.8333C0.00111539 19.7533 0.746652 20.4989 1.66668 20.5H18.3333C19.2533 20.4989 19.9989 19.7533 20 18.8333V3.83333C19.9989 2.9133 19.2533 2.16776 18.3333 2.16668ZM16.3333 1.83334C16.3333 1.46517 16.6318 1.16667 17 1.16667C17.3682 1.16667 17.6667 1.46514 17.6667 1.83334V3.83333C17.6667 4.2015 17.3682 4.5 17 4.5C16.6318 4.5 16.3333 4.20154 16.3333 3.83333V1.83334ZM11.6667 1.83334C11.6667 1.46517 11.9651 1.16667 12.3333 1.16667C12.7015 1.16667 13 1.46514 13 1.83334V3.83333C13 4.2015 12.7015 4.5 12.3333 4.5C11.9651 4.5 11.6667 4.20154 11.6667 3.83333V1.83334ZM6.99999 1.83334C6.99999 1.46517 7.29846 1.16667 7.66667 1.16667C8.03484 1.16667 8.33334 1.46514 8.33334 1.83334V3.83333C8.33334 4.2015 8.03487 4.5 7.66667 4.5C7.29849 4.5 6.99999 4.20154 6.99999 3.83333V1.83334ZM2.33332 1.83334C2.33332 1.46517 2.63178 1.16667 2.99999 1.16667C3.3682 1.16667 3.66666 1.46514 3.66666 1.83334V3.83333C3.66666 4.2015 3.3682 4.5 2.99999 4.5C2.63178 4.5 2.33332 4.20154 2.33332 3.83333V1.83334ZM1.66668 2.83332V3.83333C1.66668 4.56971 2.26364 5.16667 3.00002 5.16667C3.73641 5.16667 4.33337 4.56971 4.33337 3.83333V2.83332H6.33335V3.83333C6.33335 4.56971 6.93031 5.16667 7.6667 5.16667C8.40308 5.16667 9.00004 4.56971 9.00004 3.83333V2.83332H11V3.83333C11 4.56971 11.597 5.16667 12.3334 5.16667C13.0698 5.16667 13.6667 4.56971 13.6667 3.83333V2.83332H15.6667V3.83333C15.6667 4.56971 16.2637 5.16667 17 5.16667C17.7364 5.16667 18.3334 4.56971 18.3334 3.83333V2.83332C18.8857 2.83332 19.3334 3.28105 19.3334 3.83333V5.83331H0.666672V3.83333C0.666672 3.28105 1.11437 2.83332 1.66668 2.83332ZM18.3333 19.8333H1.66668C1.1144 19.8333 0.666672 19.3856 0.666672 18.8333V6.49998H19.3333V18.8333C19.3333 19.3856 18.8856 19.8333 18.3333 19.8333Z" fill="#F68F34"/>
<path id="Vector_2" d="M6 7.5H2.66667C2.2985 7.5 2 7.79846 2 8.16667V10.1667C2 10.5348 2.29846 10.8333 2.66667 10.8333H6C6.36818 10.8333 6.66667 10.5349 6.66667 10.1667V8.16667C6.66667 7.79846 6.36821 7.5 6 7.5ZM2.66667 10.1667V8.16667H6V10.1667H2.66667ZM11.6667 7.5H8.33335C7.96518 7.5 7.66668 7.79846 7.66668 8.16667V10.1667C7.66668 10.5348 7.96514 10.8333 8.33335 10.8333H11.6667C12.0349 10.8333 12.3334 10.5349 12.3334 10.1667V8.16667C12.3334 7.79846 12.0349 7.5 11.6667 7.5ZM8.33335 10.1667V8.16667H11.6667V10.1667H8.33335ZM17.3333 7.5H14C13.6318 7.5 13.3333 7.79846 13.3333 8.16667V10.1667C13.3333 10.5348 13.6318 10.8333 14 10.8333H17.3333C17.7015 10.8333 18 10.5349 18 10.1667V8.16667C18 7.79846 17.7015 7.5 17.3333 7.5ZM14 10.1667V8.16667H17.3333V10.1667H14ZM6 11.5H2.66667C2.2985 11.5 2 11.7985 2 12.1667V14.1667C2 14.5348 2.29846 14.8333 2.66667 14.8333H6C6.36818 14.8333 6.66667 14.5349 6.66667 14.1667V12.1667C6.66667 11.7985 6.36821 11.5 6 11.5ZM2.66667 14.1667V12.1667H6V14.1667H2.66667ZM11.6667 11.5H8.33335C7.96518 11.5 7.66668 11.7985 7.66668 12.1667V14.1667C7.66668 14.5348 7.96514 14.8333 8.33335 14.8333H11.6667C12.0349 14.8333 12.3334 14.5349 12.3334 14.1667V12.1667C12.3334 11.7985 12.0349 11.5 11.6667 11.5ZM8.33335 14.1667V12.1667H11.6667V14.1667H8.33335ZM17.3333 11.5H14C13.6318 11.5 13.3333 11.7985 13.3333 12.1667V14.1667C13.3333 14.5348 13.6318 14.8333 14 14.8333H17.3333C17.7015 14.8333 18 14.5349 18 14.1667V12.1667C18 11.7985 17.7015 11.5 17.3333 11.5ZM14 14.1667V12.1667H17.3333V14.1667H14ZM6 15.5H2.66667C2.2985 15.5 2 15.7985 2 16.1667V18.1667C2 18.5348 2.29846 18.8333 2.66667 18.8333H6C6.36818 18.8333 6.66667 18.5349 6.66667 18.1667V16.1667C6.66667 15.7985 6.36821 15.5 6 15.5ZM2.66667 18.1667V16.1667H6V18.1667H2.66667ZM11.6667 15.5H8.33335C7.96518 15.5 7.66668 15.7985 7.66668 16.1667V18.1667C7.66668 18.5348 7.96514 18.8333 8.33335 18.8333H11.6667C12.0349 18.8333 12.3334 18.5349 12.3334 18.1667V16.1667C12.3334 15.7985 12.0349 15.5 11.6667 15.5ZM8.33335 18.1667V16.1667H11.6667V18.1667H8.33335ZM17.3333 15.5H14C13.6318 15.5 13.3333 15.7985 13.3333 16.1667V18.1667C13.3333 18.5348 13.6318 18.8333 14 18.8333H17.3333C17.7015 18.8333 18 18.5349 18 18.1667V16.1667C18 15.7985 17.7015 15.5 17.3333 15.5ZM14 18.1667V16.1667H17.3333V18.1667H14Z" fill="#F68F34"/>
</g>
</g>
<defs>
<clipPath id="clip0_247_968">
<rect width="20" height="20" fill="white" transform="translate(0 0.5)"/>
</clipPath>
</defs>
</svg>
