<svg width="16" height="17" viewBox="0 0 16 17" fill="none" xmlns="http://www.w3.org/2000/svg">
<g id="Frame">
<path id="Vector" d="M14.0937 12.1874C13.5974 11.6874 12.3956 10.9577 11.8124 10.6636C11.0531 10.2811 10.9906 10.2499 10.3937 10.6933C9.99556 10.9893 9.73087 11.2536 9.26494 11.1543C8.799 11.0549 7.7865 10.4946 6.89993 9.61082C6.01337 8.72707 5.42056 7.68519 5.32087 7.22082C5.22118 6.75644 5.48993 6.49488 5.78306 6.09582C6.19618 5.53332 6.16493 5.43957 5.81181 4.68019C5.5365 4.08957 4.78556 2.89894 4.28368 2.40519C3.74681 1.87488 3.74681 1.96863 3.40087 2.11238C3.11924 2.23088 2.84905 2.37491 2.59368 2.54269C2.09368 2.87488 1.81618 3.15082 1.62212 3.5655C1.42806 3.98019 1.34087 4.95238 2.34306 6.773C3.34525 8.59363 4.04837 9.52457 5.50368 10.9758C6.959 12.4271 8.07806 13.2074 9.714 14.1249C11.7377 15.2583 12.514 15.0374 12.9299 14.8436C13.3459 14.6499 13.6231 14.3749 13.9559 13.8749C14.1241 13.6199 14.2684 13.3501 14.3871 13.0686C14.5312 12.7239 14.6249 12.7239 14.0937 12.1874Z" stroke="white" stroke-width="1.5" stroke-miterlimit="10"/>
</g>
</svg>
