<svg width="30" height="30" viewBox="0 0 30 30" fill="none" xmlns="http://www.w3.org/2000/svg">
<g id="Rating">
<g id="Switch">
<path id="Vector" d="M24.4446 18.5187C23.067 18.5187 21.7144 18.3032 20.4327 17.8796C19.8046 17.6654 19.0326 17.862 18.6492 18.2556L16.1193 20.1654C13.1854 18.5993 11.3781 16.7926 9.83336 13.8807L11.687 11.4167C12.1686 10.9358 12.3413 10.2332 12.1343 9.57404C11.7089 8.28557 11.4929 6.93363 11.4929 5.55551C11.4929 4.55994 10.683 3.75 9.68747 3.75H5.55544C4.55994 3.75 3.75 4.55994 3.75 5.55545C3.75 16.9666 13.0335 26.25 24.4446 26.25C25.4401 26.25 26.25 25.4401 26.25 24.4446V20.3241C26.2499 19.3286 25.44 18.5187 24.4446 18.5187Z" fill="#F68F34"/>
</g>
</g>
</svg>
