<svg width="40" height="40" viewBox="0 0 40 40" fill="none" xmlns="http://www.w3.org/2000/svg">
<path d="M14.8883 21.1096C13.9177 20.1087 12.3441 20.1087 11.3735 21.1096C10.403 22.1105 10.403 23.7333 11.3735 24.7342L13.6337 27.0653C13.9998 27.4428 13.9998 28.0549 13.6337 28.4325C13.2676 28.81 12.674 28.8101 12.3079 28.4325L12.3078 28.4324L8.29126 24.2903C8.11544 24.109 8.01665 23.8631 8.01663 23.6066V15.391C8.01663 14.2468 7.11938 13.3199 6.00832 13.3199H4.9375C4.41975 13.3199 4 13.7528 4 14.2867V26.7133C4 26.9697 4.09875 27.2156 4.27463 27.3969L10.025 33.327V36.0332C10.025 36.5671 10.4448 37 10.9625 37H17.9917C18.5094 37 18.9292 36.5671 18.9292 36.0332V27.8223C18.9292 26.1811 18.3094 24.6381 17.1842 23.4778L14.8883 21.1096ZM27.9667 9.7571V6.25227C27.9667 6.04219 27.9004 5.83782 27.7777 5.6701C27.6551 5.50238 27.4827 5.38043 27.2869 5.32272L25.4918 4.79402C21.9027 3.73535 18.0977 3.73533 14.5085 4.79395L12.7132 5.32272C12.5173 5.38045 12.345 5.5024 12.2224 5.67012C12.0997 5.83783 12.0333 6.04219 12.0333 6.25227V9.7571C12.0315 12.2873 12.7505 14.7623 14.1011 16.8746C15.4517 18.987 17.3744 20.6435 19.6302 21.6386C19.7469 21.6901 19.8726 21.7168 19.9995 21.7168H20.0005C20.1275 21.7168 20.2532 21.6901 20.3698 21.6386C22.6257 20.6435 24.5483 18.987 25.8989 16.8746C27.2495 14.7623 27.9686 12.2873 27.9667 9.7571ZM23.6755 10.829L20.1609 14.4534C19.9778 14.6422 19.7379 14.7366 19.498 14.7366C19.2582 14.7366 19.0182 14.6423 18.8352 14.4535L16.8268 12.3824C16.4607 12.0048 16.4607 11.3927 16.8268 11.0152C17.1928 10.6376 17.7865 10.6376 18.1526 11.0152L19.498 12.4026L22.3497 9.46184C22.7158 9.08427 23.3094 9.08427 23.6755 9.46184C24.0416 9.83934 24.0416 10.4514 23.6755 10.829ZM35.0626 13.3199H33.9917C32.8806 13.3199 31.9834 14.2468 31.9834 15.391V23.6066C31.9834 23.7336 31.9591 23.8593 31.912 23.9766C31.8649 24.0939 31.7958 24.2005 31.7087 24.2903L27.6921 28.4324L27.692 28.4325C27.326 28.8101 26.7324 28.81 26.3662 28.4325C26.0001 28.0549 26.0001 27.4428 26.3662 27.0653L28.6264 24.7342C29.597 23.7333 29.597 22.1105 28.6264 21.1096C27.6559 20.1087 26.0822 20.1087 25.1117 21.1096L22.8157 23.4778C21.6905 24.6381 21.0708 26.1811 21.0708 27.8223V36.0332C21.0708 36.5671 21.4905 37 22.0083 37H29.0374C29.5552 37 29.9749 36.5671 29.9749 36.0332V33.327L35.7254 27.3969C35.9012 27.2156 36 26.9697 36 26.7133V14.2867C36.0001 13.7528 35.5803 13.3199 35.0626 13.3199Z" fill="#F68F34"/>
</svg>
