<svg width="40" height="40" viewBox="0 0 40 40" fill="none" xmlns="http://www.w3.org/2000/svg">
<path d="M13.4358 5.75098C13.1793 5.30551 13.8556 4.91496 14.1124 5.36035L16.2959 9.1423C16.3477 9.23201 16.3618 9.3386 16.335 9.43866C16.3083 9.53872 16.2429 9.62408 16.1533 9.67598C15.9677 9.78238 15.7282 9.7216 15.6196 9.53293L13.4358 5.75098ZM9.02186 10.4517L12.803 12.6354C12.9888 12.7418 13.2283 12.6809 13.3366 12.4923C13.3623 12.4479 13.379 12.3988 13.3857 12.348C13.3924 12.2971 13.389 12.2454 13.3757 12.1958C13.3624 12.1463 13.3395 12.0998 13.3083 12.0591C13.2771 12.0184 13.2381 11.9843 13.1937 11.9586L9.41249 9.77512C8.96717 9.51832 8.57624 10.1948 9.02186 10.4517ZM20.3906 8.25395V3.88762C20.3906 3.37324 19.6094 3.37355 19.6094 3.88762V8.25395C19.6094 8.7684 20.3906 8.76871 20.3906 8.25395ZM27.0016 12.6876C27.0702 12.6875 27.1375 12.6695 27.1969 12.6354L30.9792 10.4517C31.424 10.1948 31.0339 9.51801 30.5882 9.7752L26.8063 11.9587C26.4597 12.1587 26.6068 12.6876 27.0016 12.6876ZM11.7392 16.4961L8.97522 14.9007C8.53577 14.6471 7.9653 14.7982 7.71077 15.2393L2.86092 23.6407C2.60616 24.0821 2.75788 24.65 3.19928 24.9049L5.96327 26.5011C6.40311 26.755 6.97295 26.6032 7.22772 26.1619L12.0783 17.7603C12.3319 17.3209 12.1793 16.75 11.7392 16.4961ZM24.0423 9.72824C24.1765 9.72824 24.3086 9.65793 24.3806 9.53293L26.5641 5.7509C26.8212 5.30582 26.1449 4.91473 25.8875 5.36027L23.7039 9.14223C23.5526 9.40449 23.7448 9.72824 24.0423 9.72824ZM18.6622 33.6968L17.9427 34.7202C17.0892 35.9379 18.9238 37.2233 19.7765 36.0104L20.4959 34.987C21.3489 33.7735 19.5163 32.4821 18.6622 33.6968ZM21.1218 18.594C19.6117 18.2615 18.7194 18.3866 17.526 19.3659C16.9725 19.82 16.3434 20.4514 15.8286 20.9585L15.014 21.7577L14.8543 25.1162C14.8439 25.3352 14.8708 25.6291 15.0751 25.7575C15.4334 25.9825 16.1319 25.6849 16.4545 25.5107C17.1375 25.1418 17.6406 23.7264 18.0455 22.9626C18.0778 22.9019 18.1292 22.8534 18.1917 22.8246C19.3578 22.2864 20.5826 21.5707 21.8534 22.3064L29.4347 26.6957L31.6872 25.545L27.5973 18.4597C25.3992 19.117 23.3394 19.0823 21.1218 18.594ZM29.2655 27.3275L21.5368 22.8532C20.5676 22.2921 19.515 22.8964 18.5772 23.3418C18.3753 23.482 17.8178 25.4916 16.7541 26.0661C16.1865 26.3727 15.3423 26.671 14.7383 26.2914C14.3237 26.0308 14.2014 25.5512 14.2235 25.0865L14.3892 21.6028C14.393 21.5227 14.4275 21.4466 14.4851 21.3907L16.1137 19.7958L12.3985 18.4686L8.25428 25.6461L10.7883 28.81L11.6592 27.573C12.2676 26.7087 13.3043 26.6027 14.0931 27.1569C14.4683 27.4205 14.659 27.7201 14.809 28.1364L14.8917 28.0635C16.099 26.9996 18.0062 28.1743 17.7698 29.6635L17.7546 29.7592L17.8511 29.7499C19.1723 29.6225 20.4294 31.096 19.5303 32.4614L19.4569 32.5728L19.5902 32.5776C20.788 32.6207 21.7807 33.8879 21.1647 35.0982L21.1326 35.1614L22.9915 36.2432C24.2733 36.9891 25.3955 35.0554 24.1283 34.311L22.0389 33.0942C21.6799 32.8852 21.9986 32.3404 22.3562 32.5487L25.0899 34.1402C26.3713 34.8859 27.4948 32.9519 26.2265 32.2079L23.6668 30.7176C23.3087 30.5092 23.6245 29.9629 23.9842 30.1721L27.3538 32.1339C28.6365 32.8821 29.766 30.943 28.4823 30.1957L27.8039 29.8012L25.2948 28.3402C24.9367 28.1317 25.2533 27.5854 25.6132 27.7949L28.1398 29.2659C29.4213 30.0118 30.5493 28.0706 29.2655 27.3275ZM37.139 23.6407L32.2891 15.2393C32.0343 14.7978 31.4642 14.6473 31.0251 14.9007L28.2611 16.4961C27.8206 16.7503 27.6686 17.3213 27.922 17.7602L32.7726 26.1618C33.0273 26.6029 33.5965 26.7552 34.0367 26.501L36.8007 24.9048C37.2422 24.65 37.3939 24.0821 37.139 23.6407ZM18.9761 32.1535C19.8298 30.9404 17.996 29.6486 17.1424 30.8625L15.1362 33.7156C14.2833 34.9286 16.1167 36.2191 16.9706 35.0049L18.1506 33.3264L18.9761 32.1535ZM14.0099 29.2253C14.8618 28.0156 13.0305 26.7208 12.1755 27.9358L10.7396 29.9764C9.88639 31.1889 11.7183 32.4819 12.5733 31.2666L14.0099 29.2253ZM15.0976 28.7757L13.0895 31.6304L12.6638 32.235C11.8086 33.4497 13.6443 34.7414 14.4982 33.5253L16.9315 30.066C17.7855 28.8536 15.9523 27.5604 15.0976 28.7757Z" fill="#F68F34"/>
</svg>
