<svg width="40" height="40" viewBox="0 0 40 40" fill="none" xmlns="http://www.w3.org/2000/svg">
<path d="M15.8671 22.8519C15.4421 22.4331 14.9071 22.1737 14.4715 22.1737C14.3403 22.1737 14.1596 22.1987 14.0428 22.3175L10.6846 25.73C10.5003 25.9175 10.5465 26.2587 10.5746 26.3956C10.6546 26.7844 10.9003 27.2031 11.2484 27.5456C11.6734 27.9637 12.2084 28.2237 12.644 28.2237C12.7753 28.2237 12.9553 28.1987 13.0728 28.08L16.4309 24.6675C16.7284 24.3644 16.5503 23.5237 15.8671 22.8519ZM13.1853 20.7C13.1053 20.3125 12.8603 19.8937 12.5121 19.5506C12.0809 19.1256 11.5453 18.8662 11.1096 18.8662C10.9784 18.8662 10.7984 18.8912 10.6815 19.01L7.32339 22.4225C7.13902 22.61 7.18464 22.9512 7.21339 23.0881C7.29339 23.4769 7.53839 23.8956 7.88714 24.2381C8.31839 24.6631 8.85339 24.9225 9.28902 24.9225C9.42027 24.9225 9.60027 24.8975 9.71714 24.7787L13.0753 21.3662C13.2596 21.1787 13.214 20.8375 13.1853 20.7ZM19.2221 26.1531C18.7971 25.735 18.2628 25.475 17.8271 25.475C17.6959 25.475 17.5153 25.5 17.3984 25.6187L14.0403 29.0312C13.7428 29.3344 13.9203 30.175 14.604 30.8475C15.029 31.2656 15.564 31.525 15.9996 31.525C16.1309 31.525 16.3109 31.5 16.4278 31.3812L19.7859 27.9687C20.0834 27.6662 19.9053 26.825 19.2221 26.1531ZM21.1815 28.7762C21.0503 28.7762 20.8703 28.8012 20.7534 28.92L17.3953 32.3325C17.2109 32.52 17.2571 32.8612 17.2853 32.9987C17.3653 33.3862 17.6109 33.805 17.959 34.1487C18.3903 34.5731 18.9253 34.8325 19.3615 34.8325C19.4921 34.8325 19.6728 34.8075 19.7896 34.6887L23.1478 31.2762C23.4453 30.9737 23.2665 30.1325 22.584 29.4606C22.1528 29.0356 21.6171 28.7762 21.1815 28.7762ZM33.5653 8.24624C32.7453 7.41947 31.769 6.76405 30.6934 6.31812C29.6177 5.87218 28.4641 5.64464 27.2996 5.64874C26.1343 5.64546 24.9799 5.87335 23.9032 6.31921C22.8265 6.76507 21.849 7.42005 21.0271 8.24624L16.4196 12.8606C16.3665 12.9129 16.3253 12.976 16.2987 13.0456C16.2722 13.1153 16.261 13.1898 16.2658 13.2642C16.2707 13.3386 16.2915 13.411 16.3269 13.4766C16.3623 13.5422 16.4114 13.5994 16.4709 13.6444C17.3528 14.3131 18.5959 14.3987 19.5896 13.8231L25.0071 10.6356C25.1619 10.5483 25.3447 10.5252 25.5163 10.5713C25.688 10.6173 25.8347 10.7288 25.925 10.8818C26.0153 11.0348 26.0421 11.2171 25.9995 11.3896C25.9569 11.5621 25.8483 11.711 25.6971 11.8044L25.2084 12.0919L25.8165 12.7006C25.8228 12.7062 25.8309 12.7075 25.8365 12.7131L32.899 19.7756C33.1865 20.0628 33.4139 20.4045 33.5678 20.7806C34.3925 19.9594 35.0464 18.9828 35.4914 17.9073C35.9365 16.8319 36.1641 15.6789 36.1609 14.515C36.1643 13.3504 35.9366 12.1966 35.491 11.1206C35.0455 10.0446 34.3909 9.06759 33.5653 8.24624Z" fill="#F68F34"/>
<path d="M24.892 13.6881C24.8858 13.6825 24.8776 13.6813 24.872 13.6756L24.0001 12.8025L20.2739 14.9944C18.8076 15.8444 16.9614 15.7181 15.652 14.7256C15.4376 14.5639 15.2605 14.3581 15.1327 14.1219C15.0048 13.8858 14.9292 13.625 14.9109 13.3571C14.8927 13.0892 14.9322 12.8205 15.0268 12.5692C15.1215 12.3179 15.2691 12.0899 15.4595 11.9006L19.2783 8.07563L19.1145 7.91001C17.3458 6.14188 15.0126 5.16626 12.5458 5.16626C10.1983 5.16626 8.00451 6.06751 6.36951 7.70251C2.91639 11.1619 3.01014 16.8813 6.57951 20.4506L6.97264 20.8444L9.71389 18.0575C10.0676 17.6988 10.5501 17.5081 11.1095 17.5081C11.912 17.5081 12.7676 17.8975 13.457 18.5756C14.007 19.1169 14.3795 19.7713 14.5145 20.4256C14.5426 20.5619 14.5483 20.6944 14.5545 20.8256C15.3326 20.8513 16.1526 21.2281 16.8189 21.8838C17.5064 22.5606 17.8739 23.3788 17.9108 24.1275C18.6889 24.1531 19.5089 24.53 20.1745 25.185C20.862 25.8619 21.2289 26.68 21.2664 27.4288C22.0439 27.4544 22.8633 27.8319 23.5289 28.4869C24.0851 29.0331 24.4289 29.6706 24.5664 30.2888C24.8026 30.205 25.0133 30.0775 25.1876 29.9C25.5063 29.5802 25.6858 29.1476 25.6871 28.6961C25.6884 28.2447 25.5113 27.811 25.1945 27.4894L25.1926 27.4875L18.127 20.4213C18.064 20.3584 18.0139 20.2837 17.9798 20.2014C17.9457 20.1191 17.9282 20.0309 17.9283 19.9419C17.9278 19.8075 17.9673 19.676 18.0417 19.5641C18.1161 19.4523 18.2221 19.365 18.3462 19.3134C18.4703 19.2619 18.6069 19.2483 18.7386 19.2745C18.8704 19.3008 18.9915 19.3655 19.0864 19.4606L26.1501 26.5244L26.1558 26.5306C26.4763 26.8479 26.9092 27.0256 27.3602 27.0251C27.8111 27.0245 28.2436 26.8456 28.5633 26.5275C28.8858 26.2056 29.0633 25.7769 29.0633 25.3213C29.0633 24.8656 28.8858 24.4375 28.5633 24.115L21.4983 17.0519C21.4352 16.9889 21.3852 16.914 21.3511 16.8317C21.317 16.7493 21.2994 16.661 21.2994 16.5719C21.2994 16.4827 21.317 16.3945 21.3511 16.3121C21.3852 16.2298 21.4352 16.1549 21.4983 16.0919C21.5613 16.0288 21.6361 15.9788 21.7185 15.9447C21.8008 15.9106 21.8891 15.8931 21.9783 15.8931C22.0674 15.8931 22.1557 15.9106 22.238 15.9447C22.3204 15.9788 22.3952 16.0288 22.4583 16.0919L29.5208 23.1544C30.1664 23.8006 31.2926 23.8013 31.9389 23.1544C32.262 22.8313 32.4395 22.4019 32.4395 21.945C32.4395 21.4881 32.2614 21.0588 31.9389 20.7356L24.892 13.6881Z" fill="#F68F34"/>
</svg>
