<svg width="30" height="30" viewBox="0 0 30 30" fill="none" xmlns="http://www.w3.org/2000/svg">
<g id="Container">
<g id="Button">
<path id="Vector" d="M23.5703 5H5.42969C4.25644 5.00296 3.13207 5.45503 2.30211 6.25749C1.47215 7.05995 1.00404 8.14759 1 9.28291L1 20.7135C1.00306 21.8495 1.47074 22.938 2.30081 23.7412C3.13087 24.5445 4.2558 24.997 5.42969 25H23.5703C24.7442 24.997 25.8691 24.5445 26.6992 23.7412C27.5293 22.938 27.9969 21.8495 28 20.7135V9.28291C27.996 8.14759 27.5279 7.05995 26.6979 6.25749C25.8679 5.45503 24.7436 5.00296 23.5703 5ZM24.8301 11.4261C24.8305 11.5141 24.8081 11.6007 24.7648 11.6781C24.7216 11.7555 24.659 11.8212 24.5828 11.8691L15.3965 17.762C15.3076 17.8193 15.2033 17.8501 15.0964 17.8508C14.9896 17.8514 14.8849 17.8218 14.7953 17.7655L4.42088 11.3241C4.34224 11.2762 4.27743 11.2098 4.23252 11.1311C4.18761 11.0524 4.16405 10.9639 4.16406 10.874V8.74965C4.16416 8.65401 4.19089 8.56017 4.24144 8.47798C4.29199 8.3958 4.36449 8.32831 4.45131 8.28262C4.53814 8.23693 4.63608 8.21472 4.73485 8.21833C4.83361 8.22195 4.92954 8.25124 5.01256 8.30314L14.7674 14.3517C14.8571 14.4079 14.9618 14.4376 15.0688 14.437C15.1757 14.4363 15.2801 14.4054 15.3691 14.3481L23.9743 8.83691C24.0571 8.78327 24.1535 8.75242 24.253 8.74767C24.3526 8.74292 24.4516 8.76444 24.5395 8.80993C24.6274 8.85542 24.7009 8.92317 24.7521 9.00594C24.8033 9.08871 24.8302 9.18339 24.8301 9.27985V11.4261Z" fill="#F68F34" stroke="#F68F34" stroke-width="0.25" stroke-miterlimit="10"/>
</g>
</g>
</svg>
