<svg width="16" height="16" viewBox="0 0 16 16" fill="none" xmlns="http://www.w3.org/2000/svg">
<g id="Frame">
<g id="Group">
<path id="Vector" d="M4.6665 6L7.99984 8.33333L11.3332 6" stroke="white" stroke-width="1.5" stroke-linecap="round" stroke-linejoin="round"/>
<path id="Vector_2" d="M1.33325 11.3333V4.66659C1.33325 4.31296 1.47373 3.97382 1.72378 3.72378C1.97382 3.47373 2.31296 3.33325 2.66659 3.33325H13.3333C13.6869 3.33325 14.026 3.47373 14.2761 3.72378C14.5261 3.97382 14.6666 4.31296 14.6666 4.66659V11.3333C14.6666 11.6869 14.5261 12.026 14.2761 12.2761C14.026 12.5261 13.6869 12.6666 13.3333 12.6666H2.66659C2.31296 12.6666 1.97382 12.5261 1.72378 12.2761C1.47373 12.026 1.33325 11.6869 1.33325 11.3333Z" stroke="white" stroke-width="1.5"/>
</g>
</g>
</svg>
