<svg width="20" height="20" viewBox="0 0 20 20" fill="none" xmlns="http://www.w3.org/2000/svg">
<path fill-rule="evenodd" clip-rule="evenodd" d="M6 3C4.34315 3 3 4.34315 3 6V14C3 15.6569 4.34315 17 6 17H14C15.6569 17 17 15.6569 17 14V6C17 4.34315 15.6569 3 14 3H6ZM14.5295 7.11757C14.9843 7.11757 15.353 6.74886 15.353 6.29404C15.353 5.83921 14.9843 5.47051 14.5295 5.47051C14.0747 5.47051 13.706 5.83921 13.706 6.29404C13.706 6.74886 14.0747 7.11757 14.5295 7.11757ZM13.7058 9.99989C13.7058 12.0466 12.0466 13.7058 9.99989 13.7058C7.95319 13.7058 6.29401 12.0466 6.29401 9.99989C6.29401 7.95319 7.95319 6.29401 9.99989 6.29401C12.0466 6.29401 13.7058 7.95319 13.7058 9.99989ZM10.0008 12.0589C11.1378 12.0589 12.0596 11.1371 12.0596 10.0001C12.0596 8.86301 11.1378 7.94124 10.0008 7.94124C8.86369 7.94124 7.94193 8.86301 7.94193 10.0001C7.94193 11.1371 8.86369 12.0589 10.0008 12.0589Z" fill="white"/>
</svg>
