<svg width="24" height="25" viewBox="0 0 24 25" fill="none" xmlns="http://www.w3.org/2000/svg">
<g id="Frame">
<path id="Vector" d="M11.6628 5.41252L13.5378 3.53752C14.0253 3.04999 14.6041 2.66326 15.2411 2.39941C15.8781 2.13556 16.5608 1.99976 17.2503 1.99976C17.9397 1.99976 18.6225 2.13556 19.2595 2.39941C19.8964 2.66326 20.4752 3.04999 20.9628 3.53752C21.4503 4.02506 21.837 4.60384 22.1009 5.24083C22.3647 5.87782 22.5005 6.56055 22.5005 7.25002C22.5005 7.9395 22.3647 8.62222 22.1009 9.25921C21.837 9.89621 21.4503 10.475 20.9628 10.9625L17.2128 14.7125C16.7253 15.2001 16.1465 15.5868 15.5095 15.8507C14.8725 16.1146 14.1898 16.2504 13.5003 16.2504C12.8108 16.2504 12.128 16.1146 11.4911 15.8507C10.8541 15.5868 10.2753 15.2001 9.78777 14.7125C9.58916 14.4991 9.481 14.2171 9.48603 13.9256C9.49107 13.6341 9.6089 13.3559 9.81477 13.1495C10.0212 12.9437 10.2993 12.8258 10.5908 12.8208C10.8823 12.8158 11.1644 12.9239 11.3778 13.1225C11.6562 13.4018 11.987 13.6234 12.3512 13.7746C12.7154 13.9258 13.1059 14.0036 13.5003 14.0036C13.8946 14.0036 14.2851 13.9258 14.6493 13.7746C15.0135 13.6234 15.3443 13.4018 15.6228 13.1225L19.3728 9.37252C19.9083 8.8041 20.2013 8.04941 20.1897 7.26854C20.1781 6.48766 19.8627 5.74204 19.3105 5.18981C18.7583 4.63759 18.0126 4.32222 17.2318 4.31059C16.4509 4.29896 15.6962 4.59199 15.1278 5.12752L13.2528 7.00252C13.0394 7.20114 12.7573 7.30929 12.4658 7.30426C12.1743 7.29922 11.8962 7.18139 11.6898 6.97552C11.4839 6.76912 11.3661 6.49094 11.361 6.19947C11.356 5.90799 11.4642 5.62592 11.6628 5.41252ZM4.62777 19.8725C4.90619 20.1518 5.23699 20.3734 5.60121 20.5246C5.96543 20.6758 6.35591 20.7536 6.75027 20.7536C7.14463 20.7536 7.53511 20.6758 7.89933 20.5246C8.26355 20.3734 8.59435 20.1518 8.87277 19.8725L10.7478 17.9975C10.9612 17.7989 11.2432 17.6908 11.5347 17.6958C11.8262 17.7008 12.1044 17.8187 12.3108 18.0245C12.5166 18.2309 12.6345 18.5091 12.6395 18.8006C12.6445 19.0921 12.5364 19.3741 12.3378 19.5875L10.4628 21.4625C9.97523 21.9501 9.39645 22.3368 8.75946 22.6006C8.12247 22.8645 7.43974 23.0003 6.75027 23.0003C5.35781 23.0003 4.02238 22.4471 3.03777 21.4625C2.05315 20.4779 1.5 19.1425 1.5 17.75C1.5 16.3576 2.05315 15.0221 3.03777 14.0375L6.78777 10.2875C7.27528 9.79996 7.85406 9.4132 8.49106 9.14933C9.12805 8.88546 9.81078 8.74964 10.5003 8.74964C11.1898 8.74964 11.8725 8.88546 12.5095 9.14933C13.1465 9.4132 13.7253 9.79996 14.2128 10.2875C14.4114 10.5009 14.5195 10.783 14.5145 11.0745C14.5095 11.3659 14.3916 11.6441 14.1858 11.8505C13.9794 12.0564 13.7012 12.1742 13.4097 12.1793C13.1182 12.1843 12.8362 12.0761 12.6228 11.8775C12.3443 11.5982 12.0135 11.3766 11.6493 11.2254C11.2851 11.0742 10.8946 10.9964 10.5003 10.9964C10.1059 10.9964 9.71543 11.0742 9.35121 11.2254C8.98699 11.3766 8.65619 11.5982 8.37777 11.8775L4.62777 15.6275C4.34848 15.9059 4.12689 16.2367 3.97569 16.601C3.82449 16.9652 3.74666 17.3557 3.74666 17.75C3.74666 18.1444 3.82449 18.5349 3.97569 18.8991C4.12689 19.2633 4.34848 19.5941 4.62777 19.8725Z" fill="black"/>
</g>
</svg>
