<svg width="20" height="20" viewBox="0 0 20 20" fill="none" xmlns="http://www.w3.org/2000/svg">
<path d="M5.93809 4.55625C5.9379 4.96878 5.78293 5.36434 5.5073 5.6559C5.23166 5.94746 4.85793 6.11114 4.46831 6.11094C4.0787 6.11073 3.70512 5.94666 3.42975 5.6548C3.15439 5.36295 2.99981 4.96723 3 4.55469C3.00019 4.14216 3.15516 3.7466 3.43079 3.45504C3.70643 3.16348 4.08016 2.99979 4.46978 3C4.85939 3.00021 5.23297 3.16428 5.50834 3.45614C5.7837 3.74799 5.93829 4.14371 5.93809 4.55625ZM5.98216 7.26276H3.04407V17H5.98216V7.26276ZM10.6243 7.26276H7.70094V17H10.595V11.8903C10.595 9.04378 14.0986 8.77935 14.0986 11.8903V17H17V10.8326C17 6.03394 11.8143 6.21282 10.595 8.56936L10.6243 7.26276Z" fill="white"/>
</svg>
