<svg width="24" height="25" viewBox="0 0 24 25" fill="none" xmlns="http://www.w3.org/2000/svg">
<g id="Frame">
<path id="Vector" d="M12 13C11.2583 13 10.5333 12.7801 9.91661 12.368C9.29993 11.956 8.81928 11.3703 8.53545 10.6851C8.25162 9.99984 8.17736 9.24584 8.32206 8.51841C8.46675 7.79098 8.8239 7.1228 9.34835 6.59835C9.8728 6.0739 10.541 5.71675 11.2684 5.57206C11.9958 5.42736 12.7498 5.50162 13.4351 5.78545C14.1203 6.06928 14.706 6.54993 15.118 7.16661C15.5301 7.7833 15.75 8.50832 15.75 9.25C15.7488 10.2442 15.3533 11.1973 14.6503 11.9003C13.9473 12.6033 12.9942 12.9988 12 13ZM12 7C11.555 7 11.12 7.13196 10.75 7.3792C10.38 7.62643 10.0916 7.97783 9.92127 8.38896C9.75098 8.8001 9.70642 9.2525 9.79323 9.68896C9.88005 10.1254 10.0943 10.5263 10.409 10.841C10.7237 11.1557 11.1246 11.37 11.561 11.4568C11.9975 11.5436 12.4499 11.499 12.861 11.3287C13.2722 11.1584 13.6236 10.87 13.8708 10.5C14.118 10.13 14.25 9.69501 14.25 9.25C14.2494 8.65345 14.0122 8.0815 13.5903 7.65967C13.1685 7.23784 12.5966 7.0006 12 7Z" fill="black"/>
<path id="Vector_2" d="M12 22L5.67301 14.5382C5.58509 14.4262 5.49809 14.3135 5.41201 14.2C4.33124 12.7763 3.74739 11.0374 3.75001 9.25C3.75001 7.06196 4.6192 4.96354 6.16638 3.41637C7.71355 1.86919 9.81197 1 12 1C14.188 1 16.2865 1.86919 17.8336 3.41637C19.3808 4.96354 20.25 7.06196 20.25 9.25C20.2526 11.0366 19.669 12.7747 18.5888 14.1978L18.588 14.2C18.588 14.2 18.363 14.4955 18.3293 14.5353L12 22ZM6.60901 13.2963C6.61051 13.2963 6.78451 13.5272 6.82426 13.5767L12 19.681L17.1825 13.5685C17.2155 13.5272 17.391 13.2948 17.3918 13.294C18.2746 12.1308 18.7517 10.7103 18.75 9.25C18.75 7.45979 18.0388 5.7429 16.773 4.47703C15.5071 3.21116 13.7902 2.5 12 2.5C10.2098 2.5 8.49291 3.21116 7.22704 4.47703C5.96117 5.7429 5.25001 7.45979 5.25001 9.25C5.24844 10.7112 5.72534 12.1326 6.60901 13.2963Z" fill="black"/>
</g>
</svg>
